<svg xmlns="http://www.w3.org/2000/svg" viewBox="0 0 51.7 52.1" width="32px" height="100%">
    <path fill="#F0F5F3"
        d="M50.3,0H1.3A1.32,1.32,0,0,0,0,1.3V50.7A1.32,1.32,0,0,0,1.3,52H17.6a1.16,1.16,0,0,0,1.3-1.1c.1-1.8,0-3.6,0-5.4-1.3.1-2.6.2-3.8.2-2.7-.2-4.8-1.3-5.9-4a7.25,7.25,0,0,0-3.1-3.8,2.34,2.34,0,0,1-.7-.7.45.45,0,0,1,.2-.8H7a5.74,5.74,0,0,1,3.9,2.9,5.76,5.76,0,0,0,7.8,2.4c.2-.1.4-.3.4-.4a7.17,7.17,0,0,1,1.7-3.5,22.71,22.71,0,0,1-3-.6,11.73,11.73,0,0,1-7.1-4.1,12.69,12.69,0,0,1-2.5-6.4c-.5-3.7,0-7.1,2.5-10,.1-.1.2-.5.1-.6a10.91,10.91,0,0,1,.1-6.2c.3-1.1.4-1.1,1.5-1h.2a15.68,15.68,0,0,1,5.9,2.6,1,1,0,0,0,.9.2,27.21,27.21,0,0,1,13.3,0,1,1,0,0,0,.9-.2c1-.5,2-1.1,3-1.6a8.27,8.27,0,0,1,3.8-1,1,1,0,0,1,.7.4,10,10,0,0,1,.3,6.6.83.83,0,0,0,.2.8,30.1,30.1,0,0,1,1.9,3.5,14.77,14.77,0,0,1-.9,11.1c-1.5,3.3-4.4,4.9-7.8,5.8-1.1.3-2.3.5-3.5.7a7.49,7.49,0,0,1,1.8,5.9v6.7c0,1.1.5,1.7,1.3,1.7H50.7a.85.85,0,0,0,.6-.2,1.37,1.37,0,0,0,.4-1.1V1.3A1.35,1.35,0,0,0,50.3,0Z" />
</svg>