<?xml version="1.0" encoding="utf-8"?>
<!-- Generator: Adobe Illustrator 25.0.0, SVG Export Plug-In . SVG Version: 6.00 Build 0)  -->
<svg version="1.1" id="Layer_1" xmlns="http://www.w3.org/2000/svg" xmlns:xlink="http://www.w3.org/1999/xlink" x="0px" y="0px"
	 viewBox="0 0 100 100.8" style="enable-background:new 0 0 100 100.8;" xml:space="preserve" fill="#F0F5F3">
<path d="M50,5C25.1,5,5,25.1,5,50s20.1,45,45,45s45-20.1,45-45S74.9,5,50,5z M50,21.6c4.4,0,8,3.6,8,8s-3.6,8-8,8s-8-3.6-8-8
	S45.6,21.6,50,21.6z M62,76.4c0,1.1-0.9,1.6-2,1.6H40c-1.1,0-2-0.5-2-1.6v-1c0-1.1,0.9-2.4,2-2.4h2V48h-2c-1.1,0-2-0.5-2-1.6v-1
	c0-1.1,0.9-2.4,2-2.4h16c1.1,0,2,1.3,2,2.4v1V73h2c1.1,0,2,1.3,2,2.4V76.4z"/>
</svg>
