<?xml version="1.0" encoding="utf-8"?>
<!-- Generator: Adobe Illustrator 25.0.0, SVG Export Plug-In . SVG Version: 6.00 Build 0)  -->
<svg version="1.1" id="Layer_1" xmlns="http://www.w3.org/2000/svg" xmlns:xlink="http://www.w3.org/1999/xlink"
	width="100%" height="100%" viewBox="0 0 52 52" style="enable-background:new 0 0 52 52;" xml:space="preserve"
	fill="#F0F5F3">
	<path class="st0" d="M48.2,0H3.8C1.6,0,0,1.6,0,3.8v44.4c0,2,1.8,3.8,3.8,3.8h44.4c2.2,0,3.8-1.6,3.8-3.8V3.8C52,1.6,50.2,0,48.2,0z
	 M16,44H8V20h8V44z M12,16.8c-2.6,0-4.8-2.2-4.8-4.8S9.4,7.2,12,7.2s4.8,2.2,4.8,4.8S14.6,16.8,12,16.8z M44,44h-8V32
	c0-3.2-0.8-6.4-4-6.4s-4,3.2-4,6.4v12h-8V20h8v2.8h0.4c1-2,3.6-3.6,6.6-3.6c7.4,0,9,4.8,9,10.8V44z" />
</svg>