<svg width="276" height="44" viewBox="0 0 276 44" fill="none" xmlns="http://www.w3.org/2000/svg">
<path opacity="0.8" d="M2.18 33C2.28 33 2.38 32.9 2.38 32.8L2.36 28.58V26.38C3.02 24.5 4.08 23.34 5.6 23.34C7.14 23.34 8.16 24.28 8.16 26.7V28.58L8.14 32.8C8.14 32.9 8.24 33 8.34 33H9.02C9.12 33 9.22 32.9 9.22 32.8L9.18 28.58V26.62C9.18 23.8 7.9 22.46 5.82 22.46C4.06 22.46 2.9 23.64 2.32 24.8L2.36 22.9C2.36 22.8 2.26 22.7 2.16 22.7H1.52C1.42 22.7 1.32 22.8 1.32 22.9L1.36 28.48L1.3 32.8C1.3 32.9 1.4 33 1.5 33H2.18ZM12.3097 27.76C12.3097 25.34 13.2897 23.42 15.4497 23.32C15.5497 23.32 15.8297 23.32 15.9097 23.32C17.8097 23.48 18.9097 25.16 18.8897 27.96C18.8697 30.88 17.5897 32.36 15.6097 32.36C13.3297 32.38 12.3097 30.32 12.3097 27.76ZM19.6697 33C19.7697 33 19.8697 32.9 19.8697 32.8L19.8097 27.66L19.8697 22.9C19.8697 22.8 19.7697 22.7 19.6697 22.7H19.0097C18.9097 22.7 18.8097 22.8 18.8097 22.9L18.8497 24.66C18.1897 23.26 17.0097 22.5 15.4097 22.5C12.7497 22.5 11.2697 24.9 11.2697 27.86C11.2697 30.86 12.7097 33.18 15.4097 33.18C17.0497 33.18 18.2097 32.32 18.8497 30.92L18.8097 32.8C18.8097 32.9 18.9097 33 19.0097 33H19.6697ZM30.4519 22.88C30.4719 22.8 30.4119 22.7 30.3119 22.7H29.6519C29.5319 22.7 29.4319 22.78 29.3919 22.88L26.0719 32.16L22.6919 22.88C22.6519 22.78 22.5519 22.7 22.4319 22.7H21.6719C21.5719 22.7 21.5119 22.8 21.5519 22.88L25.3119 32.84C25.3719 32.94 25.4719 33.02 25.5919 33.02H26.4919C26.6119 33.02 26.7119 32.94 26.7519 32.84L30.4519 22.88ZM33.1003 21.22C33.2003 21.22 33.3003 21.12 33.3003 21.02V19.96C33.3003 19.86 33.2003 19.76 33.1003 19.76H32.4203C32.3203 19.76 32.2203 19.86 32.2203 19.96V21.02C32.2203 21.12 32.3203 21.22 32.4203 21.22H33.1003ZM33.1003 33C33.2003 33 33.3003 32.9 33.3003 32.8L33.2803 27.56L33.3003 22.9C33.3003 22.8 33.2003 22.7 33.1003 22.7H32.4203C32.3203 22.7 32.2203 22.8 32.2203 22.9L32.2603 27.58L32.2203 32.8C32.2203 32.9 32.3203 33 32.4203 33H33.1003ZM36.587 27.84C36.587 25.18 37.687 23.3 39.907 23.3C41.967 23.3 43.187 25.04 43.167 27.94C43.147 30.82 41.847 32.14 40.007 32.16C37.687 32.18 36.587 30.54 36.587 27.84ZM44.127 31.98L44.087 25.92L44.147 22.9C44.147 22.8 44.047 22.7 43.947 22.7H43.287C43.187 22.7 43.087 22.8 43.087 22.9L43.127 24.78C42.507 23.32 41.327 22.52 39.747 22.52C37.007 22.52 35.547 24.9 35.547 27.86C35.547 30.8 37.007 32.96 39.767 32.96C41.347 32.96 42.487 32.18 43.127 30.8V31.98C43.127 34.82 41.947 36.02 39.887 36.02C38.307 36.02 37.047 35.4 36.807 33.8C36.787 33.68 36.687 33.6 36.587 33.6H35.947C35.847 33.6 35.747 33.7 35.767 33.8C35.967 35.98 37.727 36.88 39.887 36.88C42.547 36.88 44.127 35.22 44.127 31.98ZM47.2511 27.76C47.2511 25.34 48.2311 23.42 50.3911 23.32C50.4911 23.32 50.7711 23.32 50.8511 23.32C52.7511 23.48 53.8511 25.16 53.8311 27.96C53.8111 30.88 52.5311 32.36 50.5511 32.36C48.2711 32.38 47.2511 30.32 47.2511 27.76ZM54.6111 33C54.7111 33 54.8111 32.9 54.8111 32.8L54.7511 27.66L54.8111 22.9C54.8111 22.8 54.7111 22.7 54.6111 22.7H53.9511C53.8511 22.7 53.7511 22.8 53.7511 22.9L53.7911 24.66C53.1311 23.26 51.9511 22.5 50.3511 22.5C47.6911 22.5 46.2111 24.9 46.2111 27.86C46.2111 30.86 47.6511 33.18 50.3511 33.18C51.9911 33.18 53.1511 32.32 53.7911 30.92L53.7511 32.8C53.7511 32.9 53.8511 33 53.9511 33H54.6111ZM61.7733 32.32C61.7733 32.22 61.6733 32.14 61.5733 32.16C61.2933 32.22 60.9333 32.26 60.5933 32.26C59.5933 32.26 59.1933 31.8 59.1933 30.28L59.1733 23.58H61.5733C61.6733 23.58 61.7733 23.48 61.7733 23.38V22.9C61.7733 22.8 61.6733 22.7 61.5733 22.7H59.1733L59.2133 20.32C59.2133 20.22 59.1133 20.12 59.0133 20.12H58.3333C58.2333 20.12 58.1333 20.22 58.1333 20.32L58.1533 22.7H57.0333C56.9333 22.7 56.8333 22.8 56.8333 22.9V23.38C56.8333 23.48 56.9333 23.58 57.0333 23.58H58.1533V30.3C58.1533 32.48 59.1733 33.16 60.5133 33.16C60.8733 33.16 61.2733 33.08 61.5733 33C61.6933 32.98 61.7733 32.88 61.7733 32.76V32.32ZM70.7769 29.36C70.6569 29.36 70.5569 29.44 70.5369 29.56C70.2169 31.34 69.1769 32.4 67.3169 32.4C64.9369 32.4 63.7169 30.72 63.7169 27.86L71.4369 27.84C71.5369 27.84 71.6369 27.74 71.6369 27.64C71.5769 24.38 69.8969 22.48 67.1769 22.48C64.3969 22.48 62.6369 24.72 62.6369 27.88C62.6369 31.04 64.2569 33.22 67.3169 33.22C69.7569 33.22 71.1769 31.8 71.5569 29.56C71.5569 29.46 71.4769 29.36 71.3769 29.36H70.7769ZM70.4969 27H63.7569C63.9969 24.72 65.1769 23.3 67.1969 23.3C69.3569 23.3 70.4769 24.94 70.4969 27ZM86.6747 33C86.7947 33 86.8947 32.92 86.9347 32.8L89.6547 22.9C89.6947 22.8 89.6147 22.7 89.5147 22.7H88.9147C88.7947 22.7 88.6947 22.78 88.6547 22.9L86.2947 31.94L83.7947 22.9C83.7547 22.78 83.6547 22.7 83.5347 22.7H82.7147C82.5947 22.7 82.4947 22.78 82.4747 22.9L80.1347 32.02L77.5947 22.9C77.5547 22.78 77.4547 22.7 77.3347 22.7H76.6547C76.5547 22.7 76.4747 22.8 76.5147 22.9L79.4547 32.8C79.4947 32.92 79.5947 33 79.7147 33H80.5147C80.6347 33 80.7347 32.92 80.7547 32.8L83.0547 23.54L85.5947 32.8C85.6347 32.92 85.7347 33 85.8547 33H86.6747ZM92.3972 21.22C92.4972 21.22 92.5972 21.12 92.5972 21.02V19.96C92.5972 19.86 92.4972 19.76 92.3972 19.76H91.7172C91.6172 19.76 91.5172 19.86 91.5172 19.96V21.02C91.5172 21.12 91.6172 21.22 91.7172 21.22H92.3972ZM92.3972 33C92.4972 33 92.5972 32.9 92.5972 32.8L92.5772 27.56L92.5972 22.9C92.5972 22.8 92.4972 22.7 92.3972 22.7H91.7172C91.6172 22.7 91.5172 22.8 91.5172 22.9L91.5572 27.58L91.5172 32.8C91.5172 32.9 91.6172 33 91.7172 33H92.3972ZM99.6639 32.32C99.6639 32.22 99.5639 32.14 99.4639 32.16C99.1839 32.22 98.8239 32.26 98.4839 32.26C97.4839 32.26 97.0839 31.8 97.0839 30.28L97.0639 23.58H99.4639C99.5639 23.58 99.6639 23.48 99.6639 23.38V22.9C99.6639 22.8 99.5639 22.7 99.4639 22.7H97.0639L97.1039 20.32C97.1039 20.22 97.0039 20.12 96.9039 20.12H96.2239C96.1239 20.12 96.0239 20.22 96.0239 20.32L96.0439 22.7H94.9239C94.8239 22.7 94.7239 22.8 94.7239 22.9V23.38C94.7239 23.48 94.8239 23.58 94.9239 23.58H96.0439V30.3C96.0439 32.48 97.0639 33.16 98.4039 33.16C98.7639 33.16 99.1639 33.08 99.4639 33C99.5839 32.98 99.6639 32.88 99.6639 32.76V32.32ZM108.394 26.7V28.68L108.354 32.8C108.354 32.9 108.454 33 108.554 33H109.254C109.354 33 109.454 32.9 109.454 32.8L109.414 28.68V26.7C109.434 23.78 108.134 22.46 106.034 22.46C104.274 22.46 103.134 23.6 102.534 24.78L102.594 19.18C102.594 19.08 102.494 18.98 102.394 18.98H101.714C101.614 18.98 101.514 19.08 101.514 19.18L101.574 25.84L101.514 32.8C101.514 32.9 101.614 33 101.714 33H102.394C102.494 33 102.594 32.9 102.594 32.8L102.534 26.36C103.194 24.52 104.294 23.32 105.834 23.32C107.354 23.32 108.394 24.26 108.394 26.7Z" fill="#F0F5F3"/>
<path opacity="0.8" d="M173.862 27.86C173.862 24.64 172.222 22.48 169.242 22.48C166.262 22.48 164.622 24.64 164.622 27.86C164.622 31.08 166.262 33.22 169.242 33.22C172.222 33.22 173.862 31.06 173.862 27.86ZM165.722 27.86C165.722 25.08 166.902 23.3 169.242 23.3C171.602 23.3 172.762 25.1 172.762 27.86C172.762 30.64 171.622 32.4 169.242 32.4C166.902 32.4 165.722 30.66 165.722 27.86ZM176.88 33C176.98 33 177.08 32.9 177.08 32.8L177.04 26.5C177.54 24.38 178.86 23.48 180.3 23.48C180.62 23.48 180.86 23.5 181.04 23.54C181.16 23.56 181.24 23.5 181.24 23.38V22.88C181.24 22.78 181.14 22.66 181.04 22.64C180.86 22.6 180.64 22.58 180.4 22.58C179 22.58 177.7 23.36 177 24.84L177.08 22.9C177.08 22.8 176.98 22.7 176.88 22.7H176.2C176.1 22.7 176 22.8 176 22.9L176.04 27.68L176 32.8C176 32.9 176.1 33 176.2 33H176.88Z" fill="#F0F5F3"/>
<path opacity="0.6" d="M230.922 38.2C231.102 38.2 231.252 38.08 231.282 37.9L237.522 12.4C237.552 12.25 237.432 12.1 237.282 12.1H236.562C236.382 12.1 236.232 12.22 236.202 12.4L229.962 37.9C229.932 38.05 230.052 38.2 230.202 38.2H230.922Z" fill="#F0F5F3"/>
<g opacity="0.8">
<path d="M200.627 19.6429C200.627 19.6429 200.85 19.6429 200.627 19.6429C200.85 19.6429 200.85 19.6429 200.85 19.6429C200.85 19.6429 200.85 19.6429 201.073 19.6429H217.563H217.786C218.232 19.6429 218.678 19.0536 218.678 18.6607V4.51786C218.678 3.92857 218.232 3.53572 217.563 3.53572H201.073C200.404 3.53572 199.958 3.92857 199.958 4.51786V18.8571C199.958 19.25 200.181 19.4464 200.627 19.6429ZM202.187 5.5H216.449V17.875H202.187V5.5Z" fill="#F0F5F3"/>
<path d="M209.318 9.03572L205.084 12.375C203.97 13.1607 205.53 14.7321 206.644 13.75L209.318 11.5893L211.769 13.75C212.884 14.7321 214.444 13.1607 213.329 12.375L209.318 9.03572Z" fill="#F0F5F3"/>
<path d="M209.318 32.8036L213.552 29.0714C214.221 28.4821 213.775 27.3036 212.661 27.3036C212.438 27.3036 211.992 27.5 211.992 27.6964L209.541 29.8571L207.089 27.6964C206.644 27.5 206.198 27.5 205.975 27.5C205.084 27.5 204.415 28.4821 205.307 29.2679L209.318 32.8036Z" fill="#F0F5F3"/>
<path d="M217.563 21.8036H201.073C200.404 21.8036 199.958 22.1964 199.958 22.7857V37.125C199.958 37.7143 200.404 38.1071 201.073 38.1071H217.563C218.232 38.1071 218.678 37.7143 218.678 37.125V22.7857C218.678 22.1964 218.232 21.8036 217.563 21.8036ZM216.449 36.1429H202.187V23.7679H216.449V36.1429Z" fill="#F0F5F3"/>
</g>
<g opacity="0.8" clip-path="url(#clip0)">
<path d="M141.327 26.8355L147.529 23.1518L125.739 16L133.531 36L137.545 30.307L140.697 33.2006C141.202 33.6641 141.874 33.9195 142.588 33.9196C142.588 33.9196 142.588 33.9196 142.588 33.9196C143.303 33.9196 143.974 33.6643 144.479 33.2006C145.522 32.2434 145.522 30.6861 144.479 29.729L141.327 26.8355ZM143.219 32.0434C143.05 32.198 142.826 32.2831 142.588 32.2831H142.588C142.35 32.2831 142.126 32.198 141.958 32.0435L137.246 27.7184L133.995 32.3299L128.687 18.7054L143.531 23.5773L138.506 26.5613L143.219 30.8863C143.566 31.2053 143.566 31.7244 143.219 32.0434Z" fill="#F0F5F3"/>
</g>
<g opacity="0.8">
<path d="M272.119 10.875H259.453C258.44 10.875 257.615 11.632 257.615 12.5625V22.125H247.197C246.183 22.125 245.358 22.882 245.358 23.8125V35.4375C245.358 36.368 246.183 37.125 247.197 37.125H271.438C272.827 37.125 273.957 36.0877 273.957 34.8126V12.5625C273.957 11.632 273.133 10.875 272.119 10.875ZM272.323 34.8126C272.323 35.2606 271.926 35.625 271.438 35.625H247.197C247.084 35.625 246.992 35.541 246.992 35.4375V23.8125C246.992 23.709 247.084 23.625 247.197 23.625H258.432C258.883 23.625 259.249 23.2892 259.249 22.875V12.5625C259.249 12.459 259.341 12.375 259.453 12.375H272.119C272.231 12.375 272.323 12.459 272.323 12.5625V34.8126Z" fill="#F0F5F3"/>
<path d="M265.786 18C265.335 18 264.969 18.3358 264.969 18.75V29.0625H254.387L255.78 27.7844C256.099 27.4916 256.099 27.0167 255.78 26.7239C255.461 26.4309 254.944 26.4309 254.624 26.7239L251.838 29.2817C251.799 29.3167 251.765 29.3553 251.735 29.3966C251.722 29.4149 251.713 29.4348 251.701 29.4538C251.687 29.4776 251.672 29.5005 251.66 29.5257C251.649 29.5503 251.643 29.576 251.635 29.6014C251.628 29.6229 251.619 29.6434 251.614 29.6656C251.593 29.7626 251.593 29.8624 251.614 29.9594C251.619 29.9816 251.628 30.0021 251.635 30.0236C251.643 30.049 251.649 30.0747 251.66 30.0993C251.672 30.1245 251.687 30.1474 251.701 30.1712C251.713 30.1902 251.722 30.2101 251.735 30.2284C251.765 30.2697 251.799 30.3083 251.838 30.3433L254.624 32.9011C254.784 33.0476 254.993 33.1208 255.202 33.1208C255.411 33.1208 255.62 33.0476 255.78 32.9011C256.099 32.6083 256.099 32.1334 255.78 31.8406L254.387 30.5625H265.786C266.237 30.5625 266.603 30.2267 266.603 29.8125V18.75C266.603 18.3358 266.237 18 265.786 18Z" fill="#F0F5F3"/>
</g>
<defs>
<clipPath id="clip0">
<rect width="21.7899" height="20" fill="white" transform="translate(125.739 16)"/>
</clipPath>
</defs>
</svg>
