<svg xmlns="http://www.w3.org/2000/svg" xmlns:xlink="http://www.w3.org/1999/xlink" width="100%" height="100%"
    viewBox="0 0 353.5 122.5" preserveAspectRatio="xMidYMid meet">
    <path fill-rule="evenodd" stroke-linecap="butt" stroke-linejoin="miter" stroke-width="1.5px"
        stroke="rgb(240, 245, 243)" fill-opacity="0" fill="rgb(240, 245, 243)"
        d="M344.459,42.320 C342.059,44.360 338.699,45.320 332.879,45.560 C330.719,45.680 325.379,45.740 321.480,45.740 C311.940,45.740 307.080,45.560 304.680,45.080 C300.240,44.300 297.661,42.620 296.161,39.681 C294.601,36.741 294.241,33.801 294.241,25.041 C294.241,18.321 294.361,16.641 295.081,13.942 C296.221,9.682 298.561,7.402 303.060,6.082 C306.420,5.122 310.080,4.882 320.640,4.882 C332.159,4.882 335.699,5.002 338.519,5.482 C344.699,6.622 347.699,9.802 348.538,16.221 C348.778,17.841 348.898,21.081 348.898,25.941 C348.898,35.601 347.878,39.501 344.459,42.320 ZM321.600,14.662 C312.660,14.662 310.200,14.962 308.640,16.102 C307.020,17.361 306.540,19.341 306.540,25.101 C306.540,30.981 307.020,33.141 308.520,34.401 C310.140,35.721 312.120,35.961 321.300,35.961 C331.799,35.961 333.959,35.601 335.339,33.681 C336.479,32.241 336.779,30.201 336.779,24.861 C336.779,14.782 336.599,14.662 321.600,14.662 ZM269.340,45.320 L257.161,45.320 L257.161,15.202 L239.342,15.202 L239.342,5.302 L287.160,5.302 L287.160,15.202 L269.340,15.202 L269.340,45.320 ZM215.941,35.481 L196.382,35.481 L196.382,45.320 L184.262,45.320 L184.262,5.302 L214.861,5.302 C222.601,5.302 224.581,5.542 227.101,6.802 C231.121,8.782 232.621,12.442 232.621,20.001 C232.621,27.621 231.241,31.581 227.941,33.621 C225.601,35.061 222.901,35.481 215.941,35.481 ZM214.081,15.022 L196.382,15.022 L196.382,25.761 L214.081,25.761 C219.061,25.761 220.501,24.681 220.501,20.901 C220.501,16.102 219.301,15.022 214.081,15.022 ZM193.441,107.421 L220.980,107.421 L220.980,117.320 L181.261,117.320 L181.261,77.302 L193.441,77.302 L193.441,107.421 ZM155.642,45.320 L143.402,45.320 L143.402,31.461 L120.543,5.302 L136.083,5.302 L149.582,21.861 L162.961,5.302 L178.201,5.302 L155.642,31.461 L155.642,45.320 ZM102.122,117.560 C100.262,117.620 99.182,117.620 96.782,117.620 L92.222,117.680 C80.943,117.620 78.723,117.500 75.783,116.720 C68.523,114.500 66.603,110.721 66.783,98.841 L66.783,77.302 L78.963,77.302 L78.963,94.701 L78.963,97.101 C78.963,101.481 78.963,101.601 79.143,102.681 C79.743,107.181 81.723,108.081 90.842,108.081 C99.962,108.081 102.482,107.841 103.982,106.701 C105.182,105.801 105.782,104.061 105.842,101.001 C105.902,100.101 105.902,100.101 105.902,95.661 L105.902,77.302 L118.081,77.302 L118.081,98.301 C118.201,108.201 117.361,111.141 113.821,114.320 C110.942,116.540 107.342,117.500 102.122,117.560 ZM108.901,30.021 C113.881,30.861 115.381,32.961 115.261,39.021 L115.261,45.320 L102.902,45.320 L102.902,40.341 C102.842,36.021 101.642,35.121 96.182,35.241 L77.523,35.241 L77.523,45.320 L65.403,45.320 L65.403,5.302 L99.902,5.302 C106.982,5.302 110.101,5.902 112.381,7.822 C114.721,9.682 115.801,13.102 115.801,18.501 C115.801,25.941 114.001,28.881 108.901,30.021 ZM102.542,16.281 C101.642,15.322 100.622,15.142 96.962,15.142 L77.523,15.142 L77.523,25.461 L96.542,25.461 C102.422,25.461 103.562,24.741 103.562,20.781 C103.562,18.201 103.322,17.121 102.542,16.281 ZM43.502,117.320 L5.704,117.320 L5.704,77.302 L41.822,77.302 C46.442,77.302 48.962,77.722 51.062,78.742 C54.302,80.422 55.621,83.122 55.621,88.221 C55.621,93.441 53.822,96.141 50.042,96.861 C55.441,97.881 57.241,100.221 57.241,106.041 C57.241,111.081 55.801,114.260 52.622,115.940 C50.762,116.900 48.122,117.320 43.502,117.320 ZM41.462,86.482 C40.682,86.242 40.082,86.182 37.742,86.182 L17.583,86.182 L17.583,93.261 L38.042,93.261 C40.382,93.261 41.222,93.141 42.002,92.781 C42.962,92.241 43.562,91.161 43.562,89.781 C43.562,88.161 42.782,86.962 41.462,86.482 ZM42.962,101.421 C42.242,101.181 41.762,101.121 39.062,101.121 L17.583,101.121 L17.583,108.441 L39.362,108.441 C41.822,108.441 42.302,108.381 43.082,108.141 C44.282,107.721 45.002,106.521 45.002,104.841 C45.002,103.101 44.282,101.901 42.962,101.421 ZM29.523,35.901 C38.582,35.901 39.902,35.841 41.582,35.121 C43.322,34.401 43.982,33.141 43.982,30.261 L55.801,30.261 C55.741,36.081 55.561,38.061 54.722,39.861 C53.162,43.280 49.922,44.900 43.682,45.320 C41.222,45.560 36.422,45.620 28.443,45.620 C16.923,45.620 13.203,45.080 9.963,42.980 C6.003,40.461 4.864,36.261 4.864,24.381 C4.864,13.822 6.063,10.042 10.263,7.642 C13.863,5.542 17.703,5.002 28.923,5.002 C43.862,5.002 47.102,5.302 50.522,6.982 C53.762,8.602 55.261,12.142 55.261,18.021 L55.261,19.341 L43.622,19.341 C43.382,14.962 42.482,14.602 31.922,14.602 C21.963,14.602 20.163,14.842 18.663,16.161 C17.223,17.481 16.923,19.101 16.923,25.581 C16.923,35.181 17.823,35.901 29.523,35.901 ZM173.521,87.202 L155.701,87.202 L155.701,117.320 L143.522,117.320 L143.522,87.202 L125.703,87.202 L125.703,77.302 L173.521,77.302 L173.521,87.202 ZM271.739,86.362 L239.401,86.362 L239.401,93.261 L269.879,93.261 L269.879,101.181 L239.401,101.181 L239.401,108.261 L272.159,108.261 L272.159,117.320 L227.401,117.320 L227.401,77.302 L271.739,77.302 L271.739,86.362 ZM328.139,79.822 C330.479,81.682 331.559,85.102 331.559,90.501 C331.559,97.941 329.759,100.881 324.659,102.021 C329.639,102.861 331.139,104.961 331.019,111.021 L331.019,117.320 L318.659,117.320 L318.659,112.341 C318.599,108.021 317.399,107.121 311.940,107.241 L293.280,107.241 L293.280,117.320 L281.161,117.320 L281.161,77.302 L315.660,77.302 C322.739,77.302 325.859,77.902 328.139,79.822 ZM293.280,87.142 L293.280,97.461 L312.300,97.461 C318.179,97.461 319.319,96.741 319.319,92.781 C319.319,90.201 319.079,89.121 318.299,88.281 C317.399,87.322 316.380,87.142 312.720,87.142 L293.280,87.142 Z" />
</svg>