<svg id="aa031bdf-3eab-4f90-8836-6732aa0b957f" data-name="Layer 1" xmlns="http://www.w3.org/2000/svg" width="100%"
    height="100%" viewBox="0 0 124.35 46.78">
    <path
        d="M25.1,60.83c-13.76,0-22.27-9.54-22.27-23.17,0-14.27,8.7-23.55,22.2-23.55,9.6,0,17.41,4,20,15.81a.57.57,0,0,1-.57.7H36.36a.83.83,0,0,1-.83-.7c-1.35-5.31-4.87-8.32-10.63-8.32-7.8,0-12,6-12,16s4.36,15.74,12,15.74c6.21,0,9.6-3.33,10.82-9.34a.87.87,0,0,1,.83-.71h8.32a.58.58,0,0,1,.57.71C42.89,56.15,35.59,60.83,25.1,60.83Z"
        transform="translate(-2.83 -14.11)" />
    <path
        d="M67.34,60.89c-11.71,0-19.78-4.93-20.29-15.42a.71.71,0,0,1,.7-.71h8.77a.82.82,0,0,1,.77.71c.64,4.93,2.94,8.12,10.24,8.12,5.82,0,9-1.72,9-6,0-10.11-28.6-2.11-28.6-19.9,0-8.38,6.52-13.63,18-13.63,10.43,0,17.66,4,19.07,13.5a.66.66,0,0,1-.64.71H75.59a.78.78,0,0,1-.83-.71c-.58-4-3.84-6.14-9.22-6.14-4.6,0-7.93,1.6-7.93,5.31,0,9.54,28.73,1.79,28.73,19.52C86.34,55.77,79.05,60.89,67.34,60.89Z"
        transform="translate(-2.83 -14.11)" />
    <path
        d="M108.17,60.89c-11.71,0-19.78-4.93-20.29-15.42a.71.71,0,0,1,.7-.71h8.77a.81.81,0,0,1,.77.71c.64,4.93,2.94,8.12,10.24,8.12,5.82,0,9-1.72,9-6,0-10.11-28.6-2.11-28.6-19.9,0-8.38,6.52-13.63,18-13.63,10.43,0,17.66,4,19.07,13.5a.66.66,0,0,1-.64.71h-8.77a.79.79,0,0,1-.83-.71c-.57-4-3.84-6.14-9.21-6.14-4.61,0-7.94,1.6-7.94,5.31,0,9.54,28.73,1.79,28.73,19.52C127.17,55.77,119.88,60.89,108.17,60.89Z"
        transform="translate(-2.83 -14.11)" /></svg>