<svg xmlns="http://www.w3.org/2000/svg" viewBox="0 0 24 24"><path d="M12,2A10,10,0,1,1,2,12,10,10,0,0,1,12,2Zm0-2A12,12,0,1,0,24,12,12,12,0,0,0,12,0Zm0,6a6,6,0,0,0-1.9,11.69c.3.06.4-.13.4-.29V16.29c-1.67.36-2-.71-2-.71a1.61,1.61,0,0,0-.66-.88c-.55-.37,0-.36,0-.36a1.26,1.26,0,0,1,.92.62,1.28,1.28,0,0,0,1.74.5,1.34,1.34,0,0,1,.38-.81c-1.33-.15-2.73-.66-2.73-3a2.33,2.33,0,0,1,.62-1.61,2.16,2.16,0,0,1,.06-1.59s.5-.16,1.65.61a5.73,5.73,0,0,1,3,0c1.15-.77,1.65-.61,1.65-.61a2.16,2.16,0,0,1,.06,1.59,2.29,2.29,0,0,1,.62,1.61c0,2.3-1.41,2.81-2.74,3a1.44,1.44,0,0,1,.41,1.11V17.4c0,.16.1.35.4.29A6,6,0,0,0,12,6Z" fill="#fff"/></svg>