<?xml version="1.0" encoding="utf-8"?>
<!-- Generator: Adobe Illustrator 25.0.0, SVG Export Plug-In . SVG Version: 6.00 Build 0)  -->
<svg version="1.1" id="Capa_1" xmlns="http://www.w3.org/2000/svg" xmlns:xlink="http://www.w3.org/1999/xlink"
	width="100%" height="100%" viewBox="0 0 51.7 52.1" style="enable-background:new 0 0 51.7 52.1;" fill="#F0F5F3"
	xml:space="preserve">
	<g>
		<g>
			<path d="M50.3,0h-49C0.6,0,0,0.6,0,1.3v49.4c0,0.7,0.6,1.3,1.3,1.3h16.3v0c0.7,0,1.3-0.4,1.3-1.1c0.1-1.8,0-3.6,0-5.4
			c-1.3,0.1-2.6,0.2-3.8,0.2c-2.7-0.2-4.8-1.3-5.9-4c-0.6-1.6-1.6-2.9-3.1-3.8c-0.3-0.2-0.5-0.4-0.7-0.7c-0.3-0.3-0.2-0.7,0.2-0.8
			C6,36.4,6.5,36.4,7,36.4c1.7,0.3,3,1.4,3.9,2.9c1.8,2.9,4.6,3.8,7.8,2.4c0.2-0.1,0.4-0.3,0.4-0.4c0.3-1.3,0.7-2.4,1.7-3.5
			c-1.1-0.2-2.1-0.3-3-0.6c-2.8-0.6-5.3-1.8-7.1-4.1c-1.5-1.9-2.2-4.1-2.5-6.4c-0.5-3.7,0-7.1,2.5-10c0.1-0.1,0.2-0.5,0.1-0.6
			c-0.6-2.1-0.5-4.1,0.1-6.2c0.3-1.1,0.4-1.1,1.5-1c0.1,0,0.1,0,0.2,0c2.2,0.4,4.1,1.4,5.9,2.6c0.3,0.2,0.6,0.3,0.9,0.2
			c4.4-1.1,8.9-1.1,13.3,0c0.3,0.1,0.6,0,0.9-0.2c1-0.5,2-1.1,3-1.6c1.2-0.6,2.4-1,3.8-1c0.2,0,0.6,0.2,0.7,0.4
			c0.8,2.2,1,4.3,0.3,6.6c-0.1,0.2,0,0.6,0.2,0.8c0.6,1.2,1.5,2.3,1.9,3.5c1.2,3.8,0.8,7.5-0.9,11.1c-1.5,3.3-4.4,4.9-7.8,5.8
			c-1.1,0.3-2.3,0.5-3.5,0.7c1.6,1.7,1.9,3.7,1.8,5.9c0,2.2,0,4.4,0,6.7c0,1.1,0.5,1.7,1.3,1.7c9,0,15.6,0,16.3,0
			c0.1,0,0.4,0,0.6-0.2c0.3-0.2,0.4-0.7,0.4-1.1v-0.3V1.3C51.7,0.6,51.1,0,50.3,0z" />
			<path class="st0" d="M50.7,52.1c0.6,0,1,0,1,0v-1.2C51.7,50.9,51.7,52.1,50.7,52.1z" />
		</g>
	</g>
	<polyline points="5.4,50.9 47.2,50.9 50.7,52.1 1.5,52.1 5.4,50.9 " />
	<line class="st1" x1="50.7" y1="52.1" x2="51.7" y2="50.9" />
</svg>