<?xml version="1.0" encoding="utf-8"?>
<!-- Generator: Adobe Illustrator 25.0.0, SVG Export Plug-In . SVG Version: 6.00 Build 0)  -->
<svg version="1.1" id="Capa_1" xmlns="http://www.w3.org/2000/svg" xmlns:xlink="http://www.w3.org/1999/xlink" width="100%" height="100%" viewBox="20 20 528 528" fill="#F0F5F3" fill-rule="evenodd">
	<style type="text/css">
		.st0 {
			display: none;
		}
	</style>
	<g>
		<g>
			<path d="M537.7,14.2H30.4c-7.7,0-13.9,6.2-13.9,13.9v511.8c0,7.7,6.2,13.9,13.9,13.9H199v-0.1c7.6-0.1,13.4-4.3,13.7-11.6
			c0.7-18.7,0.2-37.5,0.2-55.6c-13.6,0.6-26.6,2.3-39.4,1.6c-28.3-1.6-50-13.7-61.3-41.4c-6.7-16.4-16.7-30.4-32.4-39.8
			c-2.9-1.8-5.5-4.3-7.7-6.9c-2.9-3.4-2.4-6.9,2.2-7.9c4.7-0.9,9.8-1.6,14.4-0.8c18.1,3.4,30.6,14.7,40.1,29.8
			c18.9,29.8,48,38.9,80.7,25.2c1.8-0.8,4.1-2.6,4.5-4.3c2.6-13.2,7.6-25.2,17.5-35.8c-11-2-21.3-3.6-31.3-5.9
			c-28.9-6.7-54.9-18.7-73.9-42.6c-15.5-19.5-22.6-42.3-25.8-66.6c-5.1-38-0.5-73.6,25.6-104c1.3-1.5,2-4.7,1.4-6.6
			c-6.5-21.4-5.5-42.6,0.9-63.7c3.4-11.1,4.3-11.7,15.7-10.1c0.7,0.1,1.4,0.3,2.1,0.4c22.7,3.8,42.3,14.8,61.5,26.6
			c2.6,1.6,6.5,2.6,9.4,1.9c46-11.2,91.9-11.1,137.9,0c2.7,0.6,6.2-0.3,8.8-1.6c10.5-5.5,20.5-11.8,31.1-17
			c12.3-6,25.3-10.6,39.3-10.3c2.4,0,6.2,2.4,7.1,4.5c8.4,22.3,10.2,45,3.5,68.2c-0.7,2.5,0.3,6,1.7,8.4c6.6,12.1,15.9,23.3,20,36.2
			c12.8,39.3,8.1,78.1-9.3,115c-15.9,33.8-45.5,51-80.4,59.8c-11.8,3-23.9,4.8-36.6,7.3c16.7,17.4,19.3,38.7,19,61
			c-0.3,23-0.2,46-0.2,69c0,11.1,4.9,17.3,13.3,17.6c93.5-0.2,161.1-0.2,168.7,0c0.9,0,3.8,0.2,6.2-1.6c3.6-2.5,4.3-7.6,4.4-11.3
			v-3.4V28.1C551.6,20.4,545.4,14.2,537.7,14.2z" />
			<path class="st0" d="M541,553.9c6.7,0,10.7,0,10.7,0V541C551.6,541,551.6,553.8,541,553.9z" />
		</g>
	</g>
	<polyline points="72.4,541 504.7,541 541.6,553.9 31.9,553.9 72.4,541 " />
	<line x1="540.9" y1="553.9" x2="551.6" y2="541" />
</svg>