<svg xmlns="http://www.w3.org/2000/svg" viewBox="0 0 24 24"><path d="M0,0V24H24V0ZM14.53,19.59c-.4.08-.53-.17-.53-.38V17a1.89,1.89,0,0,0-.55-1.48c1.78-.2,3.65-.88,3.65-3.95a3.07,3.07,0,0,0-.82-2.14,2.88,2.88,0,0,0-.08-2.12s-.67-.22-2.2.82a7.54,7.54,0,0,0-4,0c-1.53-1-2.2-.82-2.2-.82a2.85,2.85,0,0,0-.08,2.11,3.11,3.11,0,0,0-.82,2.15c0,3.07,1.86,3.75,3.64,4A1.73,1.73,0,0,0,10,16.61a1.72,1.72,0,0,1-2.33-.67,1.68,1.68,0,0,0-1.22-.83s-.78,0-.06.49a2.12,2.12,0,0,1,.89,1.17s.46,1.43,2.69.95V19.2c0,.22-.13.46-.53.39a8,8,0,1,1,5.06,0Z" fill="#ffffff"/></svg>