<svg xmlns="http://www.w3.org/2000/svg" xmlns:xlink="http://www.w3.org/1999/xlink" width="100%" height="100%"
    viewBox="0 0 202.5 49.5" preserveAspectRatio="xMidYMid meet">
    <path fill-rule="evenodd" stroke-width="1.5px" stroke-linecap="butt" stroke-linejoin="miter" stroke-width="1px"
        stroke="rgb(240, 245, 243)" fill-opacity="0" fill="rgb(240, 245, 243)"
        d="M197.659,35.261 L197.659,44.320 L152.901,44.320 L152.901,4.302 L197.239,4.302 L197.239,13.362 L164.900,13.362 L164.900,20.261 L195.379,20.261 L195.379,28.181 L164.900,28.181 L164.900,35.261 L197.659,35.261 ZM107.962,44.320 L86.602,4.302 L100.042,4.302 L115.821,34.541 L131.961,4.302 L145.520,4.302 L123.381,44.320 L107.962,44.320 ZM67.163,4.302 L79.342,4.302 L79.342,44.320 L67.163,44.320 L67.163,4.302 ZM44.602,29.021 L16.883,29.021 L16.883,44.320 L4.704,44.320 L4.704,4.302 L16.883,4.302 L16.883,19.121 L44.602,19.121 L44.602,4.302 L56.781,4.302 L56.781,44.320 L44.602,44.320 L44.602,29.021 Z" />
</svg>