<svg id="e6fb0b2e-3b30-4d71-8b18-627699ac79b7" data-name="Layer 1" xmlns="http://www.w3.org/2000/svg"
    viewBox="0 0 344.45 53.16">
    <path
        d="M91,54.48A10.77,10.77,0,0,1,80.71,48l.12,15.72a.39.39,0,0,1-.36.36H78.13a.39.39,0,0,1-.36-.36l.12-24.06-.12-16.32a.39.39,0,0,1,.36-.36h2.28a.39.39,0,0,1,.36.36l-.12,5.82c2-4.2,5.52-6.84,10.38-6.84,8,0,12.36,7,12.36,16S99,54.48,91,54.48Zm-.6-2.34c6.9,0,10-6,10-13.44,0-7.8-3.06-14-10-14-5.94,0-9.9,4.56-10,13.44S84.13,52.14,90.37,52.14Z"
        transform="translate(-77.77 -10.92)" />
    <path
        d="M119.35,54.54c-8.94,0-13.8-6.42-13.8-16.08s4.86-16.14,13.8-16.14,13.8,6.48,13.8,16.14S128.23,54.54,119.35,54.54Zm0-2.34c7.2,0,10.74-5.34,10.74-13.74s-3.6-13.8-10.74-13.8-10.8,5.4-10.8,13.8S112.21,52.2,119.35,52.2Z"
        transform="translate(-77.77 -10.92)" />
    <path
        d="M136.81,53.88a.39.39,0,0,1-.36-.36l.12-15.6-.12-14.58a.39.39,0,0,1,.36-.36h2.28a.39.39,0,0,1,.36.36l-.18,5.7a11.29,11.29,0,0,1,10.14-6.42,8.39,8.39,0,0,1,2.22.24.6.6,0,0,1,.36.48V25.2a.26.26,0,0,1-.36.24,8.3,8.3,0,0,0-2.28-.24c-4.5,0-9.06,3-10,9.72l.06,18.6a.39.39,0,0,1-.36.36Z"
        transform="translate(-77.77 -10.92)" />
    <path
        d="M168,53.4a.6.6,0,0,1-.36.48,18.1,18.1,0,0,1-3.36.48c-4,0-7-2-7-8.58V25.44h-3.6a.39.39,0,0,1-.36-.36V23.34a.39.39,0,0,1,.36-.36h3.6l-.06-7.38a.39.39,0,0,1,.36-.36h2.34a.39.39,0,0,1,.36.36L160.21,23h7.38a.39.39,0,0,1,.36.36v1.74a.39.39,0,0,1-.36.36h-7.38V45.78c0,4.62,1.2,6,4.26,6a16.69,16.69,0,0,0,3.12-.3.26.26,0,0,1,.36.24Z"
        transform="translate(-77.77 -10.92)" />
    <path
        d="M177.07,39.72l.06,13.8a.39.39,0,0,1-.36.36h-2.34a.39.39,0,0,1-.36-.36l.06-13.8V25.44h-4.62a.39.39,0,0,1-.36-.36V23.34a.39.39,0,0,1,.36-.36h4.62v-3.3c0-6.54,3.66-8.7,6.78-8.76a11.78,11.78,0,0,1,3.06.42.6.6,0,0,1,.36.48v1.62a.26.26,0,0,1-.36.24,9.14,9.14,0,0,0-2.52-.36c-2.76,0-4.38,1.92-4.38,6.54V23h6.84a.39.39,0,0,1,.36.36v1.74a.39.39,0,0,1-.36.36h-6.84Z"
        transform="translate(-77.77 -10.92)" />
    <path
        d="M196.93,54.54c-8.94,0-13.8-6.42-13.8-16.08s4.86-16.14,13.8-16.14,13.8,6.48,13.8,16.14S205.81,54.54,196.93,54.54Zm0-2.34c7.2,0,10.74-5.34,10.74-13.74s-3.6-13.8-10.74-13.8-10.8,5.4-10.8,13.8S189.79,52.2,196.93,52.2Z"
        transform="translate(-77.77 -10.92)" />
    <path
        d="M214.69,53.88a.39.39,0,0,1-.36-.36l.12-21.06-.12-20.22a.39.39,0,0,1,.36-.36H217a.39.39,0,0,1,.36.36l-.12,20.1.12,21.18a.39.39,0,0,1-.36.36Z"
        transform="translate(-77.77 -10.92)" />
    <path
        d="M222.73,19.26a.39.39,0,0,1-.36-.36V15.36a.39.39,0,0,1,.36-.36h2.34a.39.39,0,0,1,.36.36V18.9a.39.39,0,0,1-.36.36Zm0,34.62a.39.39,0,0,1-.36-.36l.06-16-.06-14.22a.39.39,0,0,1,.36-.36h2.34a.39.39,0,0,1,.36.36l-.12,14.16.12,16a.39.39,0,0,1-.36.36Z"
        transform="translate(-77.77 -10.92)" />
    <path
        d="M242.77,54.54c-8.94,0-13.8-6.42-13.8-16.08s4.86-16.14,13.8-16.14,13.8,6.48,13.8,16.14S251.65,54.54,242.77,54.54Zm0-2.34c7.2,0,10.74-5.34,10.74-13.74s-3.6-13.8-10.74-13.8S232,30.06,232,38.46,235.63,52.2,242.77,52.2Z"
        transform="translate(-77.77 -10.92)" />
    <path
        d="M281.29,53.4a.6.6,0,0,1-.36.48,18.1,18.1,0,0,1-3.36.48c-4,0-7-2-7-8.58V25.44H267a.39.39,0,0,1-.36-.36V23.34A.39.39,0,0,1,267,23h3.6l-.06-7.38a.39.39,0,0,1,.36-.36h2.34a.39.39,0,0,1,.36.36L273.55,23h7.38a.39.39,0,0,1,.36.36v1.74a.39.39,0,0,1-.36.36h-7.38V45.78c0,4.62,1.2,6,4.26,6a16.69,16.69,0,0,0,3.12-.3.26.26,0,0,1,.36.24Z"
        transform="translate(-77.77 -10.92)" />
    <path
        d="M284.41,53.88a.39.39,0,0,1-.36-.36l.12-15.6-.12-14.58a.39.39,0,0,1,.36-.36h2.28a.39.39,0,0,1,.36.36l-.18,5.7A11.29,11.29,0,0,1,297,22.62a8.39,8.39,0,0,1,2.22.24.6.6,0,0,1,.36.48V25.2a.26.26,0,0,1-.36.24A8.3,8.3,0,0,0,297,25.2c-4.5,0-9.06,3-10,9.72l.06,18.6a.39.39,0,0,1-.36.36Z"
        transform="translate(-77.77 -10.92)" />
    <path
        d="M320.83,53.88a.39.39,0,0,1-.36-.36l.18-5.94a10.89,10.89,0,0,1-10.44,6.84c-8,0-12.36-7-12.36-16s4.38-16.08,12.42-16.08a10.57,10.57,0,0,1,10.32,6.72l-.12-5.76a.39.39,0,0,1,.36-.36h2.28a.39.39,0,0,1,.36.36l-.12,14.52.12,15.66a.39.39,0,0,1-.36.36Zm-10-1.8c5.94,0,9.9-4.5,10-13.32s-3.66-14-9.9-14c-6.9,0-10,5.94-10,13.44C300.85,45.9,303.91,52.08,310.81,52.08Z"
        transform="translate(-77.77 -10.92)" />
    <path
        d="M340.27,54.54c-8.82,0-13.56-6.36-13.56-16s4.74-16.2,13.62-16.2c7.5,0,11.82,4.32,12.48,10.8a.39.39,0,0,1-.36.36h-2a.51.51,0,0,1-.42-.36c-.78-5.4-4.2-8.4-9.66-8.4-7.2,0-10.56,5.4-10.56,13.8s3.36,13.62,10.5,13.68c6,0,9.6-3.6,10.14-9.36a.39.39,0,0,1,.36-.36h2a.39.39,0,0,1,.36.36C352.57,49.62,348.19,54.54,340.27,54.54Z"
        transform="translate(-77.77 -10.92)" />
    <path
        d="M372,50.1l-8.58-13.68L359,41l.06,12.6a.39.39,0,0,1-.36.36h-2.28a.39.39,0,0,1-.36-.36l.12-20.4-.12-20.94a.39.39,0,0,1,.36-.36h2.28a.39.39,0,0,1,.36.36l-.12,20.88v4.44l13.8-14.34a.92.92,0,0,1,.6-.24h2.88a.16.16,0,0,1,.12.24l-10.74,11,11.88,19.38a.2.2,0,0,1-.18.3h-2.7a.72.72,0,0,1-.54-.3Z"
        transform="translate(-77.77 -10.92)" />
    <path
        d="M402.91,43a.3.3,0,0,1,.3.36c-1,6.9-5.22,11.22-12.66,11.22-9.18,0-14-6.54-14-16s5.28-16.2,13.56-16.2S403.27,28.08,403.39,38a.39.39,0,0,1-.36.36l-23.46.06c0,8.7,3.72,13.8,11,13.8,5.7,0,8.82-3.36,9.78-8.88a.51.51,0,0,1,.42-.36Zm-12.72-18.3c-6.18,0-9.78,4.38-10.5,11.28h20.52C400.15,29.7,396.73,24.66,390.19,24.66Z"
        transform="translate(-77.77 -10.92)" />
    <path
        d="M407.05,53.88a.39.39,0,0,1-.36-.36l.12-15.6-.12-14.58a.39.39,0,0,1,.36-.36h2.28a.39.39,0,0,1,.36.36l-.18,5.7a11.29,11.29,0,0,1,10.14-6.42,8.39,8.39,0,0,1,2.22.24.6.6,0,0,1,.36.48V25.2a.26.26,0,0,1-.36.24,8.3,8.3,0,0,0-2.28-.24c-4.5,0-9.06,3-10,9.72l.06,18.6a.39.39,0,0,1-.36.36Z"
        transform="translate(-77.77 -10.92)" /></svg>