<svg id="b4ab1c9c-219a-4bc8-b814-a8e0ac46f633" data-name="Layer 1" xmlns="http://www.w3.org/2000/svg" width="100%"
    height="100%" viewBox="0 0 73.83 72.6">
    <path
        d="M44.59,73.8h-36l0,0A41.59,41.59,0,0,1,8.5,66.9,88.24,88.24,0,0,1,18,33.26c1.66-3.27,3.27-6.57,5.22-9.68A42.07,42.07,0,0,1,33.13,12.4,32.54,32.54,0,0,1,47.78,6,27.29,27.29,0,0,1,64,8.3a38.49,38.49,0,0,1,10,6.62c.14.12.26.25.4.38L72.8,17.72l-.11-.08A13.43,13.43,0,0,0,65,14a16.71,16.71,0,0,0-9.22,1.47A28,28,0,0,0,40.73,30.93,38.13,38.13,0,0,0,38.54,40a53.13,53.13,0,0,0-.06,8.92,74.93,74.93,0,0,0,2.08,12.54,87.94,87.94,0,0,0,4,12.15Z"
        transform="translate(-0.59 -1.2)" />
    <path d="M1.4,55.45l7,.54L7.22,63,.59,62.22Z" transform="translate(-0.59 -1.2)" />
    <path d="M12.51,40.55l-6.37-2,2-5.7,6.23,2.44Z" transform="translate(-0.59 -1.2)" />
    <path
        d="M50.41,67.37l-2.62-.15L43.71,67c-.45,0-.45,0-.57-.45L42,62.44c0-.1,0-.21-.08-.33l.26,0H47.6a.34.34,0,0,1,.37.19q1.17,2.44,2.36,4.87A1.32,1.32,0,0,1,50.41,67.37Z"
        transform="translate(-0.59 -1.2)" />
    <path d="M25,18.06l-3.66,4.33-4.88-3.25,3.8-4.2Z" transform="translate(-0.59 -1.2)" />
    <path
        d="M45.67,52.46l-3.53-1.52c-.65-.27-1.29-.54-1.93-.83-.08,0-.19-.16-.18-.23.07-1.51.16-3,.24-4.58l.28.13c1.54.81,3.09,1.63,4.64,2.43a.44.44,0,0,1,.26.42c.06,1.26.15,2.51.22,3.77C45.68,52.17,45.67,52.29,45.67,52.46Z"
        transform="translate(-0.59 -1.2)" />
    <path
        d="M38.64,7,34.18,9.53,30.94,5.62a1.67,1.67,0,0,1,.2-.13l4-2.09c.13-.07.23-.11.36,0,1,1.15,2,2.28,3,3.41C38.59,6.88,38.6,6.91,38.64,7Z"
        transform="translate(-0.59 -1.2)" />
    <path d="M42.17,33l2.59,2c.39.3.79.59,1.17.89a.37.37,0,0,1,.13.28c-.34,1.43-.68,2.85-1,4.32l-4.61-3.93Z"
        transform="translate(-0.59 -1.2)" />
    <path
        d="M47.59,5.06,46.8,1.21c.61,0,1.22,0,1.82,0,1.23,0,2.46.12,3.68.16.25,0,.32.1.36.33.13.94.28,1.88.43,2.82,0,.12,0,.25,0,.4Z"
        transform="translate(-0.59 -1.2)" />
    <path d="M48.68,28.63l-3.93-4.34,2.83-2.57.14.2,2.45,3.66a.33.33,0,0,1,0,.41C49.69,26.85,49.2,27.72,48.68,28.63Z"
        transform="translate(-0.59 -1.2)" />
    <path d="M53.15,17.52l3.79-.95a14.45,14.45,0,0,0,.4,1.54.77.77,0,0,1-.35,1c-.72.49-1.38,1.06-2.08,1.62Z"
        transform="translate(-0.59 -1.2)" />
    <path d="M70.08,8.58,69.26,9.8l-3.66-2a.25.25,0,0,1-.12-.17c0-.75.09-1.51.14-2.26,0,0,0,0,0,0Z"
        transform="translate(-0.59 -1.2)" />
    <path d="M65,15.76l.88.2c.85.18,1.69.38,2.53.55.2,0,.24.13.24.31,0,.45,0,.9,0,1.37L65,17.79Z"
        transform="translate(-0.59 -1.2)" /></svg>