<svg xmlns="http://www.w3.org/2000/svg" xmlns:xlink="http://www.w3.org/1999/xlink" width="100%" height="100%"
    viewBox="0 0 383.5 42.5" preserveAspectRatio="xMidYMid meet">
    <path fill-rule="evenodd" stroke="rgb(240, 245, 243)" stroke-linecap="butt" stroke-linejoin="miter"
        stroke-width="1.5px" fill-opacity="0" fill="rgb(240, 245, 243)"
        d="M359.764,26.231 L359.764,37.320 L349.972,37.320 L349.972,26.231 L331.682,5.302 L344.115,5.302 L354.916,18.551 L365.621,5.302 L377.814,5.302 L359.764,26.231 ZM327.462,32.280 L327.462,37.320 L317.573,37.320 L317.573,33.336 C317.525,29.880 316.565,29.160 312.197,29.256 L297.267,29.256 L297.267,37.320 L287.570,37.320 L287.570,5.302 L315.173,5.302 C320.837,5.302 323.334,5.782 325.158,7.318 C327.030,8.806 327.894,11.542 327.894,15.862 C327.894,21.815 326.454,24.167 322.373,25.079 C326.358,25.751 327.558,27.431 327.462,32.280 ZM317.285,14.086 C316.565,13.318 315.749,13.174 312.821,13.174 L297.267,13.174 L297.267,21.431 L312.485,21.431 C317.189,21.431 318.101,20.855 318.101,17.687 C318.101,15.622 317.909,14.758 317.285,14.086 ZM267.078,37.512 C265.349,37.608 261.077,37.656 257.957,37.656 C250.324,37.656 246.436,37.512 244.516,37.128 C240.963,36.504 238.899,35.160 237.699,32.808 C236.451,30.456 236.163,28.104 236.163,21.095 C236.163,15.718 236.259,14.374 236.835,12.214 C237.747,8.806 239.619,6.982 243.219,5.926 C245.908,5.158 248.836,4.966 257.285,4.966 C266.501,4.966 269.334,5.062 271.590,5.446 C276.534,6.358 278.935,8.902 279.607,14.038 C279.799,15.334 279.895,17.927 279.895,21.815 C279.895,29.544 279.079,32.664 276.342,34.920 C274.422,36.552 271.734,37.320 267.078,37.512 ZM258.053,12.790 C250.900,12.790 248.932,13.030 247.684,13.942 C246.388,14.950 246.004,16.535 246.004,21.143 C246.004,25.847 246.388,27.575 247.588,28.584 C248.884,29.640 250.468,29.832 257.813,29.832 C266.213,29.832 267.942,29.544 269.046,28.008 C269.958,26.855 270.198,25.223 270.198,20.951 C270.198,12.886 270.054,12.790 258.053,12.790 ZM216.245,37.320 L206.500,37.320 L206.500,13.222 L192.243,13.222 L192.243,5.302 L230.503,5.302 L230.503,13.222 L216.245,13.222 L216.245,37.320 ZM165.605,29.784 C172.854,29.784 173.910,29.736 175.254,29.160 C176.646,28.584 177.174,27.575 177.174,25.271 L186.631,25.271 C186.583,29.928 186.439,31.512 185.767,32.952 C184.519,35.688 181.927,36.984 176.934,37.320 C174.966,37.512 171.126,37.560 164.741,37.560 C155.525,37.560 152.548,37.128 149.956,35.448 C146.788,33.432 145.876,30.072 145.876,20.567 C145.876,12.118 146.836,9.094 150.196,7.174 C153.076,5.494 156.149,5.062 165.125,5.062 C177.078,5.062 179.671,5.302 182.407,6.646 C184.999,7.942 186.199,10.774 186.199,15.478 L186.199,16.535 L176.886,16.535 C176.694,13.030 175.974,12.742 167.526,12.742 C159.557,12.742 158.117,12.934 156.917,13.990 C155.765,15.046 155.525,16.342 155.525,21.527 C155.525,29.208 156.245,29.784 165.605,29.784 ZM128.502,31.608 L107.860,31.608 L104.788,37.320 L93.747,37.320 L111.749,5.302 L124.806,5.302 L142.327,37.320 L131.671,37.320 L128.502,31.608 ZM118.181,12.166 L111.365,24.935 L125.094,24.935 L118.181,12.166 ZM52.852,5.302 L88.327,5.302 L88.327,12.550 L62.453,12.550 L62.453,18.071 L86.839,18.071 L86.839,24.407 L62.453,24.407 L62.453,30.072 L88.663,30.072 L88.663,37.320 L52.852,37.320 L52.852,5.302 ZM44.552,32.280 L44.552,37.320 L34.663,37.320 L34.663,33.336 C34.615,29.880 33.655,29.160 29.286,29.256 L14.357,29.256 L14.357,37.320 L4.660,37.320 L4.660,5.302 L32.262,5.302 C37.927,5.302 40.423,5.782 42.247,7.318 C44.119,8.806 44.984,11.542 44.984,15.862 C44.984,21.815 43.543,24.167 39.463,25.079 C43.447,25.751 44.648,27.431 44.552,32.280 ZM34.375,14.086 C33.655,13.318 32.839,13.174 29.910,13.174 L14.357,13.174 L14.357,21.431 L29.574,21.431 C34.279,21.431 35.191,20.855 35.191,17.687 C35.191,15.622 34.999,14.758 34.375,14.086 Z" />
</svg>