<svg id="bcca5661-6e9c-429c-8f46-5d31807a8b52" data-name="Layer 1" xmlns="http://www.w3.org/2000/svg" width="100%" height="auto"
    viewBox="0 0 65.99 74.17">
    <path
        d="M34.17,31.71a6.62,6.62,0,1,0,9,2.42h0A6.62,6.62,0,0,0,34.17,31.71Zm29.69,7.18c-.43-.49-.89-1-1.38-1.49.34-.36.67-.71,1-1.06,6-6.7,8.47-13.41,6.14-17.44-2.23-3.87-8.87-5-17.19-3.4-.82.16-1.63.34-2.44.54-.16-.54-.32-1.07-.5-1.6-2.82-8.5-7.38-14-12-14C33,.41,28.65,5.59,25.9,13.61c-.28.79-.53,1.58-.76,2.39-.54-.14-1.08-.26-1.63-.37C14.74,13.83,7.67,15,5.34,19.05c-2.22,3.87.11,10.2,5.67,16.59.56.63,1.12,1.25,1.71,1.85-.69.71-1.34,1.42-2,2.12C5.34,45.91,3.14,52.13,5.37,56s9.26,5.28,17.74,3.61c.69-.14,1.38-.29,2.05-.46.25.87.53,1.73.82,2.58,2.75,7.86,7,12.87,11.49,12.87,4.6,0,9.2-5.39,12-13.57.22-.65.43-1.32.62-2,.88.22,1.77.41,2.66.58,8.17,1.55,14.65.33,16.88-3.53s-.08-10.66-5.77-17.17ZM8.09,20.63c1.43-2.48,7.21-3.45,14.78-1.9.49.1,1,.21,1.48.34A75.68,75.68,0,0,0,22.79,29,77.07,77.07,0,0,0,15,35.28c-.55-.56-1.07-1.14-1.59-1.73h0C8.63,28.08,6.75,23,8.09,20.63ZM22.51,41.88c-1.9-1.44-3.66-2.91-5.26-4.38,1.6-1.47,3.36-2.94,5.25-4.37-.07,1.46-.1,2.92-.1,4.38S22.44,40.42,22.51,41.88Zm0,14.61a26.86,26.86,0,0,1-9.79.35,6.56,6.56,0,0,1-4.6-2.44c-1.35-2.34.41-7.33,5.06-12.72.58-.67,1.19-1.33,1.81-2A75,75,0,0,0,22.79,46a77.42,77.42,0,0,0,1.59,10.06C23.75,56.23,23.13,56.37,22.5,56.49ZM48.84,26.67c-1.25-.78-2.5-1.54-3.78-2.27S42.54,23,41.25,22.31c2.2-.92,4.36-1.71,6.45-2.35Q48.43,23.29,48.84,26.67Zm-20-12c2.36-6.87,5.85-11.06,8.55-11.06,2.86,0,6.59,4.52,9,11.86q.24.72.45,1.44a76.45,76.45,0,0,0-9.37,3.61,74.67,74.67,0,0,0-9.34-3.65C28.41,16.1,28.64,15.37,28.89,14.64Zm-1.48,5.28a66.62,66.62,0,0,1,6.41,2.38q-3.9,2-7.59,4.38C26.53,24.31,26.92,22.05,27.41,19.92ZM26.23,48.33Q28.08,49.5,30,50.6t3.93,2.14q-3.18,1.4-6.47,2.46C26.94,53,26.54,50.74,26.23,48.33ZM46.47,60a27,27,0,0,1-4.59,8.66h0a6.59,6.59,0,0,1-4.41,2.77c-2.7,0-6.15-4-8.49-10.74-.28-.79-.53-1.6-.77-2.4a74.55,74.55,0,0,0,9.38-3.75A76.7,76.7,0,0,0,47,58.16Q46.77,59.09,46.47,60Zm1.34-4.91c-2.11-.65-4.3-1.45-6.53-2.39,1.25-.66,2.52-1.36,3.8-2.1s2.58-1.53,3.82-2.32a65.21,65.21,0,0,1-1.09,6.81Zm1.66-17.59q0,3.39-.21,6.76c-1.83,1.23-3.76,2.44-5.77,3.6s-4,2.21-5.92,3.17c-2-1-4-2-6-3.17s-3.87-2.32-5.73-3.59q-.25-3.37-.26-6.76h0q0-3.39.25-6.76c1.83-1.25,3.74-2.46,5.72-3.6s4-2.2,6-3.16q3,1.47,5.95,3.16c2,1.12,3.87,2.3,5.74,3.55.17,2.26.25,4.53.25,6.79ZM53,18.61c7.13-1.39,12.5-.46,13.85,1.87,1.43,2.49-.62,8-5.76,13.75h0c-.29.32-.58.64-.89,1a72.69,72.69,0,0,0-8-6.26,73.92,73.92,0,0,0-1.5-9.82C51.52,18.92,52.28,18.75,53,18.61ZM52.53,33A69.51,69.51,0,0,1,58,37.42a66.11,66.11,0,0,1-5.4,4.48q.09-2.2.09-4.41C52.63,36,52.6,34.51,52.53,33ZM66.88,54.48c-1.35,2.34-6.56,3.32-13.55,2q-1.2-.23-2.46-.54A76,76,0,0,0,52.31,46a74.48,74.48,0,0,0,7.92-6.36c.44.45.85.9,1.25,1.35h0a26.78,26.78,0,0,1,5.2,8.3A6.58,6.58,0,0,1,66.88,54.48Z"
        transform="translate(-4.51 -0.41)" /></svg>