<svg xmlns="http://www.w3.org/2000/svg" xmlns:xlink="http://www.w3.org/1999/xlink" version="1.0"
    style="shape-rendering:geometricPrecision;text-rendering:geometricPrecision;image-rendering:optimizeQuality;"
    width="10%" height="10%" viewBox="0 0 10000 12500" fill-rule="evenodd" clip-rule="evenodd">
    <defs>
        <style type="text/css">
            .fil0 {
                fill: #f0f5f3;
                fill-opacity: 0.8;
                fill-rule: nonzero
            }
        </style>
    </defs>
    <g>
        <path class="fil0"
            d="M5614 4307c99,147 -125,296 -223,149 -621,-928 -1238,-1858 -1869,-2780 -118,-173 -316,-203 -484,-90 -166,112 -212,306 -97,478l1864 2785c98,146 -125,296 -223,149l-1495 -2234c-120,-173 -320,-214 -492,-99 -167,111 -210,303 -95,474l1503 2246c98,147 -125,296 -223,149l-1093 -1633c-115,-165 -308,-174 -460,-69 -148,103 -198,274 -84,428 647,967 1522,2490 2215,3336 322,483 1475,1146 2014,789l928 -622c624,-418 662,-1285 601,-1961l-356 -3129c-22,-192 -136,-368 -341,-356 -158,9 -269,128 -265,289l37 2047c2,132 -171,188 -245,77l-2005 -3007c-117,-174 -313,-202 -481,-90 -168,111 -215,306 -100,479l1469 2195zm-1756 -2614c50,-116 133,-212 238,-283 290,-196 652,-135 852,164l1752 2627 -29 -1589c-6,-308 216,-546 518,-563 347,-20 584,255 622,594l357 3135c70,784 -1,1728 -718,2208l-929 621c-680,450 -1980,-255 -2386,-862l-2209 -3327c-206,-281 -125,-617 150,-807 99,-68 218,-111 339,-116l-138 -207c-200,-299 -123,-652 170,-846 103,-69 227,-109 351,-110l-80 -119c-200,-299 -119,-654 171,-849 292,-196 650,-137 854,161l115 168z" />
    </g>
</svg>