<svg id="ae071649-4c9e-44ae-8a66-16ab78c7d93e" data-name="Layer 1" xmlns="http://www.w3.org/2000/svg"
    viewBox="0 0 330.85 42.72">
    <path
        d="M112.49,58.14a.6.6,0,0,1-.48-.36l-7.74-28-7.08,28c0,.18-.24.36-.42.36h-2.7a.6.6,0,0,1-.48-.36l-9-30.18a.26.26,0,0,1,.24-.36h2.34a.6.6,0,0,1,.48.36l7.74,27.6,7.14-27.6a.6.6,0,0,1,.48-.36h2.82a.6.6,0,0,1,.48.36L113.87,55l7.32-27.42a.6.6,0,0,1,.48-.36h2.1a.26.26,0,0,1,.24.36l-8.34,30.18a.6.6,0,0,1-.48.36Z"
        transform="translate(-84.58 -16.14)" />
    <path
        d="M150.59,47.22a.3.3,0,0,1,.3.36c-1,6.9-5.22,11.22-12.66,11.22-9.18,0-14-6.54-14-16s5.28-16.2,13.56-16.2S151,32.34,151.07,42.24a.39.39,0,0,1-.36.36l-23.46.06c0,8.7,3.72,13.8,11,13.8,5.7,0,8.82-3.36,9.78-8.88a.51.51,0,0,1,.42-.36Zm-12.72-18.3c-6.18,0-9.78,4.38-10.5,11.28h20.52C147.83,34,144.41,28.92,137.87,28.92Z"
        transform="translate(-84.58 -16.14)" />
    <path
        d="M167.57,58.74A10.63,10.63,0,0,1,157.25,52l.12,5.7a.39.39,0,0,1-.36.36h-2.28a.39.39,0,0,1-.36-.36l.12-24.3-.12-16.92a.39.39,0,0,1,.36-.36h2.34a.39.39,0,0,1,.36.36l-.06,16.56a11,11,0,0,1,10.26-6.42c8,0,12.36,7,12.36,16S175.61,58.74,167.57,58.74ZM167,56.4c6.9,0,10-5.94,10-13.5,0-7.74-3-13.92-9.9-13.92-5.94,0-9.9,4.5-10,13.32S160.73,56.4,167,56.4Z"
        transform="translate(-84.58 -16.14)" />
    <path
        d="M194.69,58.74c-7.8,0-12.6-3.54-12.78-11.16a.39.39,0,0,1,.36-.36h2.1a.39.39,0,0,1,.36.36c.12,6.12,3.66,8.94,10,8.94,5.28,0,9.12-2.4,9.12-6.66,0-10-21.3-2.76-21.3-14.76,0-5.58,4.68-8.46,11.28-8.46s11.76,2.82,12,9.36a.39.39,0,0,1-.36.36h-2.1A.39.39,0,0,1,203,36c-.24-5.1-4.2-7.14-9.18-7.14s-8.4,2-8.4,6.12c0,9.12,21.3,1.86,21.3,14.7C206.75,55.38,201.47,58.74,194.69,58.74Z"
        transform="translate(-84.58 -16.14)" />
    <path
        d="M210.59,23.52a.39.39,0,0,1-.36-.36V19.62a.39.39,0,0,1,.36-.36h2.34a.39.39,0,0,1,.36.36v3.54a.39.39,0,0,1-.36.36Zm0,34.62a.39.39,0,0,1-.36-.36l.06-16-.06-14.22a.39.39,0,0,1,.36-.36h2.34a.39.39,0,0,1,.36.36l-.12,14.16.12,16a.39.39,0,0,1-.36.36Z"
        transform="translate(-84.58 -16.14)" />
    <path
        d="M231.05,57.66a.6.6,0,0,1-.36.48,18.1,18.1,0,0,1-3.36.48c-4,0-7-2-7-8.58V29.7h-3.6a.39.39,0,0,1-.36-.36V27.6a.39.39,0,0,1,.36-.36h3.6l-.06-7.38a.39.39,0,0,1,.36-.36H223a.39.39,0,0,1,.36.36l-.06,7.38h7.38a.39.39,0,0,1,.36.36v1.74a.39.39,0,0,1-.36.36h-7.38V50c0,4.62,1.2,6,4.26,6a16.69,16.69,0,0,0,3.12-.3.26.26,0,0,1,.36.24Z"
        transform="translate(-84.58 -16.14)" />
    <path
        d="M257.27,47.22a.3.3,0,0,1,.3.36c-1,6.9-5.22,11.22-12.66,11.22-9.18,0-14-6.54-14-16s5.28-16.2,13.56-16.2,13.14,5.76,13.26,15.66a.39.39,0,0,1-.36.36l-23.46.06c0,8.7,3.72,13.8,11,13.8,5.7,0,8.82-3.36,9.78-8.88a.51.51,0,0,1,.42-.36Zm-12.72-18.3c-6.18,0-9.78,4.38-10.5,11.28h20.52C254.51,34,251.09,28.92,244.55,28.92Z"
        transform="translate(-84.58 -16.14)" />
    <path
        d="M282.71,58.74A10.63,10.63,0,0,1,272.39,52l.12,5.7a.39.39,0,0,1-.36.36h-2.28a.39.39,0,0,1-.36-.36l.12-24.3-.12-16.92a.39.39,0,0,1,.36-.36h2.34a.39.39,0,0,1,.36.36l-.06,16.56a11,11,0,0,1,10.26-6.42c8,0,12.36,7,12.36,16S290.75,58.74,282.71,58.74Zm-.6-2.34c6.9,0,10-5.94,10-13.5,0-7.74-3-13.92-9.9-13.92-5.94,0-9.9,4.5-10,13.32S275.87,56.4,282.11,56.4Z"
        transform="translate(-84.58 -16.14)" />
    <path
        d="M308.21,58.86c-6.24,0-10.08-4-10.08-12.48V40.5l-.06-12.9a.39.39,0,0,1,.36-.36h2.34a.39.39,0,0,1,.36.36l-.06,12.9v5.58c0,7.44,3.06,10.26,7.74,10.26s7.74-3.48,9.78-9.12V40.5l-.06-12.9a.39.39,0,0,1,.36-.36h2.34a.39.39,0,0,1,.36.36l-.12,13.2.12,17a.39.39,0,0,1-.36.36H319a.39.39,0,0,1-.36-.36l.18-6C317,55.26,313.55,58.86,308.21,58.86Z"
        transform="translate(-84.58 -16.14)" />
    <path
        d="M326.69,23.52a.39.39,0,0,1-.36-.36V19.62a.39.39,0,0,1,.36-.36H329a.39.39,0,0,1,.36.36v3.54a.39.39,0,0,1-.36.36Zm0,34.62a.39.39,0,0,1-.36-.36l.06-16-.06-14.22a.39.39,0,0,1,.36-.36H329a.39.39,0,0,1,.36.36l-.12,14.16.12,16a.39.39,0,0,1-.36.36Z"
        transform="translate(-84.58 -16.14)" />
    <path
        d="M334.73,58.14a.39.39,0,0,1-.36-.36l.12-21.06-.12-20.22a.39.39,0,0,1,.36-.36H337a.39.39,0,0,1,.36.36l-.12,20.1.12,21.18a.39.39,0,0,1-.36.36Z"
        transform="translate(-84.58 -16.14)" />
    <path
        d="M363.88,58.14a.38.38,0,0,1-.35-.36l.17-5.94a10.92,10.92,0,0,1-10.43,6.9c-8,0-12.36-7-12.36-16s4.38-16.14,12.42-16.14a10.64,10.64,0,0,1,10.2,6.48l-.07-16.56a.4.4,0,0,1,.37-.36h2.33a.4.4,0,0,1,.37.36L366.41,33l.12,24.78a.4.4,0,0,1-.37.36Zm-10-1.74c5.94,0,9.89-4.5,10-13.38s-3.67-14.16-9.9-14.16c-6.9,0-10,6.06-10,13.56C343.91,50.16,347,56.4,353.87,56.4Z"
        transform="translate(-84.58 -16.14)" />
    <path
        d="M396.1,47.22a.3.3,0,0,1,.3.36c-1,6.9-5.22,11.22-12.65,11.22-9.18,0-14-6.54-14-16s5.27-16.2,13.56-16.2,13.13,5.76,13.25,15.66a.39.39,0,0,1-.36.36l-23.45.06c0,8.7,3.72,13.8,11,13.8,5.69,0,8.81-3.36,9.77-8.88a.51.51,0,0,1,.42-.36Zm-12.72-18.3c-6.18,0-9.77,4.38-10.5,11.28H393.4C393.34,34,389.92,28.92,383.38,28.92Z"
        transform="translate(-84.58 -16.14)" />
    <path
        d="M400.25,58.14a.39.39,0,0,1-.37-.36l.12-15.6-.12-14.58a.39.39,0,0,1,.37-.36h2.27a.39.39,0,0,1,.36.36l-.18,5.7a11.3,11.3,0,0,1,10.14-6.42,8.39,8.39,0,0,1,2.22.24.6.6,0,0,1,.36.48v1.86a.26.26,0,0,1-.36.24,8.3,8.3,0,0,0-2.28-.24c-4.5,0-9.06,3-9.95,9.72l.05,18.6a.39.39,0,0,1-.36.36Z"
        transform="translate(-84.58 -16.14)" /></svg>